HIERARCHY
ROOT Hips
{
	OFFSET 0.000000 83.214638 0.000000
	CHANNELS 6 Xposition Yposition Zposition Xrotation Yrotation Zrotation
	JOINT Pelvis
	{
		OFFSET 0.000000 0.000000 0.000000
		CHANNELS 3 Xrotation Yrotation Zrotation
		JOINT LeftUpLeg
		{
			OFFSET 8.479700 -4.795502 -0.379100
			CHANNELS 3 Xrotation Yrotation Zrotation
			JOINT LeftLeg
			{
				OFFSET 0.024144 -32.555107 0.112900
				CHANNELS 3 Xrotation Yrotation Zrotation
				JOINT LeftFoot
				{
					OFFSET -0.024144 -32.638630 -3.012600
					CHANNELS 3 Xrotation Yrotation Zrotation
					JOINT LeftToeBase
					{
						OFFSET 0.970200 -13.225400 11.864200
						CHANNELS 3 Xrotation Yrotation Zrotation
						End Site
						{
							OFFSET 0.000000 12.319262 0.000000
						}
					}
					JOINT LFootTongue
					{
						OFFSET 1.142400 -1.059800 6.665200
						CHANNELS 3 Xrotation Yrotation Zrotation
						End Site
						{
							OFFSET 0.000000 12.319262 0.000000
						}
					}
				}
				JOINT LeftPantLeg
				{
					OFFSET 0.918482 -16.533964 -2.284700
					CHANNELS 3 Xrotation Yrotation Zrotation
					End Site
					{
						OFFSET 0.350399 24.744368 0.000000
					}
				}
			}
		}
		JOINT RightUpLeg
		{
			OFFSET -8.479700 -4.795502 -0.379100
			CHANNELS 3 Xrotation Yrotation Zrotation
			JOINT RightLeg
			{
				OFFSET -0.023144 -32.555092 0.112900
				CHANNELS 3 Xrotation Yrotation Zrotation
				JOINT RightFoot
				{
					OFFSET 0.023144 -32.638641 -3.012700
					CHANNELS 3 Xrotation Yrotation Zrotation
					JOINT RightToeBase
					{
						OFFSET -0.970200 -13.225400 11.864200
						CHANNELS 3 Xrotation Yrotation Zrotation
						End Site
						{
							OFFSET 0.000000 12.319244 0.000000
						}
					}
					JOINT RFootTongue
					{
						OFFSET -1.142200 -1.059800 6.665200
						CHANNELS 3 Xrotation Yrotation Zrotation
						End Site
						{
							OFFSET 0.000000 12.319243 0.000000
						}
					}
				}
				JOINT RightPantLeg
				{
					OFFSET -0.919482 -16.533978 -2.284800
					CHANNELS 3 Xrotation Yrotation Zrotation
					End Site
					{
						OFFSET -0.350400 24.744419 0.000000
					}
				}
			}
		}
	}
	JOINT Spine
	{
		OFFSET 0.000000 7.722000 1.166200
		CHANNELS 3 Xrotation Yrotation Zrotation
		JOINT Spine1
		{
			OFFSET 0.000000 12.024101 0.248800
			CHANNELS 3 Xrotation Yrotation Zrotation
			JOINT Spine2
			{
				OFFSET 0.000000 11.502998 -0.491200
				CHANNELS 3 Xrotation Yrotation Zrotation
				JOINT Neck
				{
					OFFSET 0.000000 18.430702 -3.123100
					CHANNELS 3 Xrotation Yrotation Zrotation
					JOINT Head
					{
						OFFSET 0.000000 9.051102 1.034000
						CHANNELS 3 Xrotation Yrotation Zrotation
						JOINT HairB
						{
							OFFSET 0.208400 24.786102 24.822300
							CHANNELS 3 Xrotation Yrotation Zrotation
							End Site
							{
								OFFSET 0.000000 32.263779 0.000000
							}
						}
						JOINT HairA
						{
							OFFSET -7.081100 24.428299 23.196600
							CHANNELS 3 Xrotation Yrotation Zrotation
							End Site
							{
								OFFSET 0.000000 32.263779 0.000000
							}
						}
						JOINT Hat
						{
							OFFSET 16.728800 15.048294 -15.439601
							CHANNELS 3 Xrotation Yrotation Zrotation
							End Site
							{
								OFFSET 0.000000 32.263779 0.000000
							}
						}
					}
				}
				JOINT LeftShoulder
				{
					OFFSET 6.197800 13.665199 -4.064700
					CHANNELS 3 Xrotation Yrotation Zrotation
					JOINT LeftArm
					{
						OFFSET 7.778100 -0.187103 -1.709300
						CHANNELS 3 Xrotation Yrotation Zrotation
						JOINT LeftForeArm
						{
							OFFSET 22.049376 0.000000 0.000000
							CHANNELS 3 Xrotation Yrotation Zrotation
							JOINT LeftHand
							{
								OFFSET 23.009392 0.000000 0.000000
								CHANNELS 3 Xrotation Yrotation Zrotation
								JOINT LeftHandThumb1
								{
									OFFSET 3.507191 -2.063065 3.133727
									CHANNELS 3 Xrotation Yrotation Zrotation
									JOINT LeftHandThumb2
									{
										OFFSET 3.101337 -1.790558 1.790558
										CHANNELS 3 Xrotation Yrotation Zrotation
										JOINT LeftHandThumb3
										{
											OFFSET 3.058640 -1.765907 1.765906
											CHANNELS 3 Xrotation Yrotation Zrotation
											End Site
											{
												OFFSET -0.415260 3.926476 -0.049563
											}
										}
									}
								}
								JOINT LeftHandIndex1
								{
									OFFSET 11.334419 -0.901459 3.706815
									CHANNELS 3 Xrotation Yrotation Zrotation
									JOINT LeftHandIndex2
									{
										OFFSET 3.283112 0.000000 0.000000
										CHANNELS 3 Xrotation Yrotation Zrotation
										JOINT LeftHandIndex3
										{
											OFFSET 3.323853 0.000000 0.000000
											CHANNELS 3 Xrotation Yrotation Zrotation
											End Site
											{
												OFFSET -1.135597 3.097809 0.402452
											}
										}
									}
								}
								JOINT LeftHandMiddle1
								{
									OFFSET 11.335861 0.000000 0.000000
									CHANNELS 3 Xrotation Yrotation Zrotation
									JOINT LeftHandMiddle2
									{
										OFFSET 3.410492 0.000000 0.000000
										CHANNELS 3 Xrotation Yrotation Zrotation
										JOINT LeftHandMiddle3
										{
											OFFSET 3.312172 0.000000 0.000000
											CHANNELS 3 Xrotation Yrotation Zrotation
											End Site
											{
												OFFSET -1.150200 3.080154 0.400270
											}
										}
									}
								}
								JOINT LeftHandRing1
								{
									OFFSET 11.514786 -0.013176 -3.003090
									CHANNELS 3 Xrotation Yrotation Zrotation
									JOINT LeftHandRing2
									{
										OFFSET 3.053307 0.000000 0.000000
										CHANNELS 3 Xrotation Yrotation Zrotation
										JOINT LeftHandRing3
										{
											OFFSET 3.295807 0.000000 0.000000
											CHANNELS 3 Xrotation Yrotation Zrotation
											End Site
											{
												OFFSET -1.281006 3.013344 0.375733
											}
										}
									}
								}
								JOINT LeftHandPinky1
								{
									OFFSET 10.518692 -0.960396 -5.730441
									CHANNELS 3 Xrotation Yrotation Zrotation
									JOINT LeftHandPinky2
									{
										OFFSET 2.861649 0.000000 0.000000
										CHANNELS 3 Xrotation Yrotation Zrotation
										JOINT LeftHandPinky3
										{
											OFFSET 2.863380 0.000000 0.000000
											CHANNELS 3 Xrotation Yrotation Zrotation
											End Site
											{
												OFFSET -0.843597 2.711159 0.369971
											}
										}
									}
								}
							}
							JOINT LSleeve
							{
								OFFSET 6.676277 -0.344902 -1.011730
								CHANNELS 3 Xrotation Yrotation Zrotation
								End Site
								{
									OFFSET 0.000000 14.885353 0.000000
								}
							}
						}
					}
				}
				JOINT RightShoulder
				{
					OFFSET -6.197800 13.665199 -4.064700
					CHANNELS 3 Xrotation Yrotation Zrotation
					JOINT RightArm
					{
						OFFSET -7.778100 -0.187103 -1.709300
						CHANNELS 3 Xrotation Yrotation Zrotation
						JOINT RightForeArm
						{
							OFFSET -22.049376 0.000000 0.000000
							CHANNELS 3 Xrotation Yrotation Zrotation
							JOINT RightHand
							{
								OFFSET -23.009392 0.000000 0.000000
								CHANNELS 3 Xrotation Yrotation Zrotation
								JOINT RightHandThumb1
								{
									OFFSET -3.507191 -2.063065 3.133727
									CHANNELS 3 Xrotation Yrotation Zrotation
									JOINT RightHandThumb2
									{
										OFFSET -3.101337 -1.790558 1.790558
										CHANNELS 3 Xrotation Yrotation Zrotation
										JOINT RightHandThumb3
										{
											OFFSET -3.058640 -1.765907 1.765906
											CHANNELS 3 Xrotation Yrotation Zrotation
											End Site
											{
												OFFSET 0.415260 3.926476 -0.049563
											}
										}
									}
								}
								JOINT RightHandIndex1
								{
									OFFSET -11.334419 -0.901459 3.706815
									CHANNELS 3 Xrotation Yrotation Zrotation
									JOINT RightHandIndex2
									{
										OFFSET -3.283112 0.000000 0.000000
										CHANNELS 3 Xrotation Yrotation Zrotation
										JOINT RightHandIndex3
										{
											OFFSET -3.323853 0.000000 0.000000
											CHANNELS 3 Xrotation Yrotation Zrotation
											End Site
											{
												OFFSET 1.135597 3.097809 0.402452
											}
										}
									}
								}
								JOINT RightHandMiddle1
								{
									OFFSET -11.335861 0.000000 0.000000
									CHANNELS 3 Xrotation Yrotation Zrotation
									JOINT RightHandMiddle2
									{
										OFFSET -3.410492 0.000000 0.000000
										CHANNELS 3 Xrotation Yrotation Zrotation
										JOINT RightHandMiddle3
										{
											OFFSET -3.312172 0.000000 0.000000
											CHANNELS 3 Xrotation Yrotation Zrotation
											End Site
											{
												OFFSET 1.150200 3.080154 0.400270
											}
										}
									}
								}
								JOINT RightHandRing1
								{
									OFFSET -11.514786 -0.013176 -3.003090
									CHANNELS 3 Xrotation Yrotation Zrotation
									JOINT RightHandRing2
									{
										OFFSET -3.053307 0.000000 0.000000
										CHANNELS 3 Xrotation Yrotation Zrotation
										JOINT RightHandRing3
										{
											OFFSET -3.295807 0.000000 0.000000
											CHANNELS 3 Xrotation Yrotation Zrotation
											End Site
											{
												OFFSET 1.281006 3.013344 0.375733
											}
										}
									}
								}
								JOINT RightHandPinky1
								{
									OFFSET -10.518692 -0.960396 -5.730441
									CHANNELS 3 Xrotation Yrotation Zrotation
									JOINT RightHandPinky2
									{
										OFFSET -2.861649 0.000000 0.000000
										CHANNELS 3 Xrotation Yrotation Zrotation
										JOINT RightHandPinky3
										{
											OFFSET -2.863380 0.000000 0.000000
											CHANNELS 3 Xrotation Yrotation Zrotation
											End Site
											{
												OFFSET 0.843597 2.711159 0.369971
											}
										}
									}
								}
							}
							JOINT RSleeve
							{
								OFFSET -6.676277 -0.344902 -1.011730
								CHANNELS 3 Xrotation Yrotation Zrotation
								End Site
								{
									OFFSET 0.000000 14.885353 0.000000
								}
							}
						}
					}
				}
				JOINT Backpack
				{
					OFFSET 0.000000 -2.471497 36.677502
					CHANNELS 3 Xrotation Yrotation Zrotation
					End Site
					{
						OFFSET 0.000000 20.427315 0.000000
					}
				}
				JOINT Hood
				{
					OFFSET 0.000000 18.754097 -10.431000
					CHANNELS 3 Xrotation Yrotation Zrotation
					JOINT Hood1
					{
						OFFSET 0.000000 -5.011002 -7.685901
						CHANNELS 3 Xrotation Yrotation Zrotation
						End Site
						{
							OFFSET 0.000000 9.175140 0.000000
						}
					}
				}
				JOINT LHoodieString
				{
					OFFSET 5.250500 16.397697 3.089900
					CHANNELS 3 Xrotation Yrotation Zrotation
					JOINT LHoodieString1
					{
						OFFSET 0.257700 -6.364304 3.694600
						CHANNELS 3 Xrotation Yrotation Zrotation
						JOINT LHoodieString2
						{
							OFFSET 0.000000 -9.643799 2.679100
							CHANNELS 3 Xrotation Yrotation Zrotation
							End Site
							{
								OFFSET 0.000000 10.009018 0.000000
							}
						}
					}
				}
				JOINT RHoodieString
				{
					OFFSET -5.250500 16.397697 3.089900
					CHANNELS 3 Xrotation Yrotation Zrotation
					JOINT RHoodieString1
					{
						OFFSET -0.257700 -6.364304 3.694600
						CHANNELS 3 Xrotation Yrotation Zrotation
						JOINT RHoodieString2
						{
							OFFSET 0.000000 -9.643799 2.679100
							CHANNELS 3 Xrotation Yrotation Zrotation
							End Site
							{
								OFFSET 0.000000 10.009018 0.000000
							}
						}
					}
				}
			}
			JOINT LBackpack_Strap
			{
				OFFSET 15.223200 -7.719803 -6.610900
				CHANNELS 3 Xrotation Yrotation Zrotation
				End Site
				{
					OFFSET 0.000000 16.040596 0.000000
				}
			}
			JOINT RBackpack_Strap
			{
				OFFSET -15.223000 -7.719803 -6.610900
				CHANNELS 3 Xrotation Yrotation Zrotation
				End Site
				{
					OFFSET 0.000000 16.040596 0.000000
				}
			}
		}
	}
	JOINT BoyFacialAnim_Joint
	{
		OFFSET 1.000000 -82.208099 -1.550900
		CHANNELS 3 Xrotation Yrotation Zrotation
		End Site
		{
			OFFSET 0.000000 30.012791 0.000000
		}
	}
}
MOTION
Frames: 5
Frame Time: 0.016667
-0.071255 87.869606 -3.773842 -89.650898 0.343354 0.885344 0.000000 0.000000 -0.000000 -6.182385 17.032711 19.246671 4.685417 7.698351 0.312747 29.985302 29.322303 -30.698104 0.000000 -0.000001 0.000000 0.000000 -0.000001 0.000000 0.000000 0.000002 0.000001 -5.265011 -16.854002 -12.909875 2.730935 -7.581743 -7.549112 39.882718 -29.331564 30.403566 -0.000001 -0.000002 -0.000000 -0.000001 -0.000002 -0.000000 -0.000000 -0.000002 0.000001 1.062485 -1.169141 0.781286 -0.317535 -2.434543 0.230484 -0.303405 -2.418348 0.331943 -10.007533 0.102137 -1.808070 8.692135 -2.170253 1.510696 -0.000000 0.000000 -0.000000 -0.000000 0.000000 -0.000000 -0.000000 0.000000 -0.000000 0.422237 -0.103001 -4.005444 35.263672 -28.378536 -54.538401 0.000206 -80.454185 0.000180 -13.958267 -3.109614 -10.085415 6.590539 -4.958656 16.122665 7.178870 21.567302 2.147291 0.000002 0.000001 -0.000003 0.659523 4.932369 -26.024465 0.169793 1.401620 -13.813544 -0.000001 -0.000001 -0.000000 1.376909 6.461969 -24.994181 0.169879 1.401969 -13.817113 0.000004 -0.000001 -0.000000 2.098728 8.644299 -21.209689 0.169784 1.401618 -13.813544 -0.000002 0.000001 -0.000000 2.123440 10.735859 -14.817568 0.167500 1.392259 -13.719325 -0.000003 -0.000002 0.000001 -0.000001 -0.000002 0.000000 0.646686 1.792568 13.881980 39.542936 30.913344 33.651659 0.000306 101.347822 -0.000296 -34.905350 -9.303367 11.136924 -13.111092 7.817363 -0.096471 7.918274 -27.751653 -3.100778 0.000002 -0.000001 0.000001 2.082847 12.897790 37.347447 0.497042 -2.095313 26.687151 -0.000002 -0.000001 0.000003 -4.321299 1.650226 38.533489 0.529952 -2.159512 27.573965 -0.000002 0.000000 0.000002 -1.394394 -1.262394 31.742006 0.254163 -1.518990 18.997024 0.000001 -0.000000 0.000000 0.189706 -3.422247 14.147207 0.162225 -1.219720 15.150956 0.000001 -0.000000 0.000000 -0.000002 -0.000001 -0.000003 0.000000 0.000000 0.000000 0.000000 0.000000 0.000000 0.000000 0.000000 0.000000 0.000000 0.000000 0.000000 0.000000 0.000000 0.000000 0.000000 -0.000000 0.000000 0.000000 0.000000 0.000000 0.000000 0.000000 0.000000 0.000000 -0.000000 0.000000 0.000000 -0.000000 -0.000000 0.000000 -0.000000 -0.000000 0.000000 0.000000 -0.000000 
-0.083719 87.868576 -3.751968 -89.671696 0.436081 1.023812 0.000000 -0.000000 0.000000 -6.198086 16.848953 19.091943 4.860888 7.569850 0.360230 29.960461 29.332743 -30.656450 -0.000000 0.000002 -0.000000 -0.000000 0.000002 -0.000000 0.000001 -0.000002 0.000002 -5.269359 -16.993634 -13.177972 2.810434 -7.265055 -7.285345 40.257845 -29.346072 30.393188 -0.000000 -0.000002 0.000000 -0.000000 -0.000002 0.000000 -0.000000 -0.000002 -0.000001 1.040804 -1.128928 0.775588 -0.418968 -2.373052 0.195801 -0.397370 -2.369105 0.309556 -9.992516 0.068523 -1.711926 8.739671 -2.317847 1.567082 -0.000000 0.000001 0.000000 -0.000000 0.000001 0.000000 -0.000000 0.000001 0.000000 0.461634 -0.727168 -4.005713 35.651685 -28.307478 -54.248299 0.000024 -80.590058 0.000031 -14.391695 -3.136438 -9.670763 6.590539 -4.958658 16.122668 7.178868 21.567304 2.147289 -0.000002 -0.000001 -0.000001 0.659525 4.932364 -26.024464 0.169792 1.401613 -13.813547 0.000001 -0.000004 -0.000004 1.376914 6.461966 -24.994179 0.169878 1.401972 -13.817118 0.000001 -0.000001 0.000002 2.098731 8.644294 -21.209684 0.169786 1.401617 -13.813550 -0.000002 -0.000001 -0.000001 2.123443 10.735860 -14.817569 0.167501 1.392261 -13.719331 -0.000001 0.000003 0.000000 -0.000002 -0.000000 0.000002 0.607869 1.777500 13.847698 37.902591 30.020047 36.590082 0.000138 101.247138 -0.000151 -36.596850 -9.378171 11.050568 -12.879209 8.193466 0.480514 7.914312 -27.716988 -3.098592 0.000002 0.000003 0.000002 2.149272 12.733846 36.856862 0.492753 -2.086756 26.569564 -0.000002 0.000001 0.000004 -4.264392 1.622380 38.347349 0.526215 -2.152303 27.474093 0.000001 0.000000 -0.000000 -1.380218 -1.295208 31.813358 0.261194 -1.539249 19.260471 -0.000000 -0.000001 0.000000 0.197464 -3.452540 14.531501 0.170498 -1.249875 15.534982 0.000002 -0.000002 0.000002 0.000002 -0.000001 -0.000002 0.000000 0.000000 -0.000000 0.000000 0.000000 -0.000000 0.000000 0.000000 -0.000000 0.000000 0.000000 -0.000000 0.000000 0.000000 -0.000000 -0.000000 0.000000 -0.000000 0.000000 0.000000 -0.000000 0.000000 0.000000 -0.000000 -0.000000 0.000000 -0.000000 0.000000 -0.000000 -0.000000 0.000000 -0.000000 -0.000000 0.000000 -0.000000 0.000000 
-0.068579 87.865654 -3.746277 -89.707657 0.534730 1.160774 0.000000 -0.000000 -0.000000 -6.217898 16.647210 18.925076 5.112315 7.434404 0.406745 29.942859 29.330895 -30.595450 0.000001 0.000000 0.000000 0.000001 0.000000 0.000000 -0.000000 -0.000000 0.000001 -5.215391 -17.147183 -13.467319 2.654587 -7.011550 -7.021371 41.109403 -29.359319 30.389369 0.000002 0.000002 -0.000001 0.000002 0.000002 -0.000001 -0.000000 -0.000001 -0.000000 1.019467 -1.089531 0.768251 -0.521705 -2.314062 0.161337 -0.492039 -2.319871 0.287192 -9.946372 0.033122 -1.614218 8.871001 -2.467348 1.625962 0.000000 -0.000000 0.000000 0.000000 -0.000000 0.000000 0.000000 -0.000000 0.000000 0.507659 -1.375824 -4.005944 35.944506 -28.114964 -54.137087 0.000027 -80.729257 0.000037 -14.694916 -3.140301 -9.355471 6.590541 -4.958654 16.122670 7.178867 21.567301 2.147290 -0.000003 -0.000004 -0.000004 0.659522 4.932368 -26.024464 0.169794 1.401617 -13.813544 -0.000003 0.000001 -0.000003 1.376909 6.461967 -24.994174 0.169876 1.401965 -13.817112 -0.000002 0.000002 0.000000 2.098730 8.644296 -21.209687 0.169784 1.401614 -13.813546 -0.000002 0.000002 -0.000002 2.123438 10.735861 -14.817566 0.167502 1.392259 -13.719320 0.000002 0.000002 0.000000 -0.000000 -0.000001 0.000006 0.569202 1.762516 13.812977 35.720708 29.082099 39.718578 -0.000165 100.780145 0.000151 -38.395813 -9.656053 11.081959 -12.219782 9.247320 2.040353 7.903575 -27.622890 -3.092649 0.000004 0.000001 0.000001 2.313687 12.270291 35.528131 0.481197 -2.063504 26.250425 0.000001 0.000001 0.000004 -4.110299 1.543898 37.842342 0.516061 -2.132712 27.202989 -0.000001 -0.000000 -0.000000 -1.341794 -1.387168 32.035841 0.281877 -1.597175 20.016018 -0.000000 0.000000 -0.000001 0.220594 -3.538231 15.622307 0.195082 -1.335145 16.624926 -0.000000 -0.000001 0.000000 0.000001 -0.000000 -0.000003 0.000000 0.000000 0.000000 0.000000 0.000000 0.000000 0.000000 0.000000 0.000000 0.000000 0.000000 0.000000 0.000000 0.000000 -0.000000 -0.000000 0.000000 0.000000 0.000000 0.000000 0.000000 0.000000 0.000000 -0.000000 -0.000000 0.000000 0.000000 0.000000 0.000000 -0.000000 0.000000 0.000000 -0.000000 0.000000 -0.000000 -0.000000 
-0.048074 87.861496 -3.740555 -89.747361 0.635015 1.298113 -0.000000 -0.000000 -0.000000 -6.242780 16.439229 18.755331 5.386773 7.293362 0.452484 29.924234 29.329590 -30.485795 0.000000 0.000002 0.000000 0.000000 0.000002 -0.000000 0.000000 0.000001 -0.000001 -5.157478 -17.301948 -13.761573 2.440966 -6.793321 -6.761379 42.050415 -29.370787 30.386217 -0.000001 0.000001 -0.000000 -0.000001 0.000001 -0.000000 0.000000 -0.000000 0.000001 0.998107 -1.050181 0.757333 -0.624382 -2.255072 0.126877 -0.586715 -2.270639 0.264828 -9.868836 -0.003009 -1.517640 9.081816 -2.617592 1.685801 0.000000 -0.000000 0.000000 0.000000 -0.000000 0.000000 0.000000 -0.000000 0.000000 0.565013 -2.038754 -3.968433 36.227822 -27.974496 -54.031233 0.000252 -80.847836 0.000258 -15.031139 -3.167403 -9.004451 6.590537 -4.958659 16.122668 7.178870 21.567304 2.147283 -0.000002 -0.000001 -0.000003 0.659523 4.932365 -26.024464 0.169789 1.401617 -13.813544 0.000000 -0.000001 -0.000002 1.376912 6.461965 -24.994177 0.169880 1.401972 -13.817112 -0.000002 -0.000001 -0.000000 2.098735 8.644289 -21.209686 0.169780 1.401617 -13.813548 0.000001 -0.000000 0.000001 2.123441 10.735857 -14.817564 0.167496 1.392262 -13.719326 0.000000 -0.000001 -0.000000 -0.000000 -0.000002 0.000001 0.532908 1.739980 13.779532 33.134597 28.142889 42.894496 0.000524 99.988451 -0.000527 -40.318740 -10.120798 11.119197 -11.190750 10.888588 4.309735 7.887762 -27.484218 -3.083849 -0.000001 0.000001 0.000004 2.511574 11.547071 33.578125 0.464409 -2.029120 25.780149 0.000000 -0.000002 0.000002 -3.884891 1.421014 37.098692 0.501306 -2.103756 26.803505 0.000001 -0.000001 -0.000000 -1.284680 -1.528348 32.422242 0.316132 -1.688248 21.211448 -0.000001 0.000002 0.000001 0.259993 -3.671151 17.326544 0.236720 -1.467372 18.327699 -0.000002 0.000003 -0.000003 -0.000000 -0.000001 -0.000002 -0.000000 0.000000 -0.000000 -0.000000 0.000000 -0.000000 -0.000000 0.000000 -0.000000 -0.000000 0.000000 -0.000000 -0.000000 0.000000 -0.000000 -0.000000 -0.000000 0.000000 -0.000000 0.000000 -0.000000 -0.000000 0.000000 -0.000000 -0.000000 -0.000000 0.000000 -0.000000 -0.000000 0.000000 -0.000000 -0.000000 0.000000 -0.000000 -0.000000 -0.000000 
-0.010902 87.857475 -3.733757 -89.779825 0.732659 1.433238 -0.000000 -0.000000 0.000000 -6.295683 16.228533 18.580915 5.715815 7.152143 0.497926 29.909474 29.327196 -30.370658 0.000000 -0.000001 0.000001 0.000000 -0.000001 0.000001 0.000001 -0.000002 0.000000 -5.137429 -17.447665 -14.068463 2.172397 -6.656577 -6.510513 43.097039 -29.378269 30.386900 0.000001 -0.000001 -0.000000 0.000001 -0.000001 -0.000000 -0.000000 -0.000000 0.000002 0.976352 -1.010329 0.745341 -0.725585 -2.193579 0.092203 -0.680580 -2.221395 0.242446 -9.759804 -0.038813 -1.424881 9.367747 -2.767415 1.745068 -0.000000 0.000001 0.000000 -0.000000 0.000001 0.000000 -0.000000 0.000001 0.000000 0.624282 -2.705506 -3.943881 36.534668 -27.843707 -53.883011 0.000510 -80.975854 0.000512 -15.391770 -3.197152 -8.631278 6.590538 -4.958662 16.122656 7.178868 21.567304 2.147292 0.000001 -0.000000 -0.000003 0.659521 4.932363 -26.024464 0.169791 1.401621 -13.813545 0.000000 0.000000 -0.000002 1.376906 6.461966 -24.994174 0.169878 1.401969 -13.817113 0.000000 -0.000001 -0.000002 2.098731 8.644296 -21.209684 0.169787 1.401620 -13.813552 -0.000003 -0.000001 -0.000002 2.123439 10.735855 -14.817569 0.167503 1.392262 -13.719327 -0.000001 0.000001 0.000003 -0.000000 -0.000000 0.000001 0.504903 1.691344 13.749588 30.303435 27.254038 45.899336 0.000187 98.894780 -0.000191 -42.437441 -10.685824 11.098018 -9.853360 13.032284 7.008851 7.868556 -27.315827 -3.073122 0.000005 -0.000001 0.000003 2.676068 10.608296 31.222738 0.444390 -1.987183 25.209098 -0.000000 -0.000001 0.000002 -3.614138 1.260206 36.196745 0.483642 -2.068470 26.318493 -0.000001 -0.000001 -0.000000 -1.213860 -1.708740 32.985340 0.364427 -1.807707 22.794617 0.000004 -0.000003 0.000003 0.317327 -3.842786 19.551258 0.296947 -1.637975 20.550279 0.000001 -0.000000 0.000000 -0.000000 -0.000000 -0.000001 0.000000 -0.000000 0.000000 0.000000 -0.000000 0.000000 0.000000 -0.000000 0.000000 0.000000 -0.000000 0.000000 0.000000 -0.000000 0.000000 0.000000 0.000000 0.000000 0.000000 -0.000000 0.000000 0.000000 -0.000000 0.000000 0.000000 0.000000 0.000000 0.000000 -0.000000 -0.000000 0.000000 -0.000000 -0.000000 -0.000000 -0.000000 0.000000 
